<svg xmlns="http://www.w3.org/2000/svg" xmlns:xlink="http://www.w3.org/1999/xlink" width="100" height="25" viewBox="0 0 100 25">
  <defs>
    <clipPath id="clip-lapis">
      <rect width="100" height="25"/>
    </clipPath>
  </defs>
  <g clip-path="url(#clip-lapis)">
    <g data-name="Rectangle 1" transform="translate(7 8)" stroke="#000" stroke-width="0.3">
      <rect width="80" height="9" stroke="none"/>
      <rect x="0.15" y="0.15" width="79.7" height="8.7" fill="none"/>
    </g>
    <g data-name="Path 6" transform="translate(86.736 8)" fill="#fff">
      <path d="M 0.2499973028898239 8.720794677734375 L 0.2499973028898239 0.2792054414749146 L 10.13647747039795 3.678413391113281 L 10.13647747039795 5.321586608886719 L 0.2499973028898239 8.720794677734375 Z" stroke="none"/>
      <path d="M 0.4999971389770508 0.6295175552368164 L 0.4999971389770508 8.370482444763184 L 9.886477470397949 5.143186569213867 L 9.886477470397949 3.856813430786133 L 0.4999971389770508 0.6295175552368164 M -2.86102294921875e-06 0 L 0.2068471908569336 0 L 10.38647747039795 3.5 L 10.38647747039795 5.5 L 0.2068471908569336 9 L -2.86102294921875e-06 9 L -2.86102294921875e-06 0 Z" stroke="none" fill="#000"/>
    </g>
    <g data-name="Path 7" transform="translate(97 11.528)">
      <path d="M 0.1500000059604645 1.763883352279663 L 0.1500000059604645 0.1810092031955719 L 2.849999904632568 0.9362194538116455 L 2.849999904632568 1.008617997169495 L 0.1500000059604645 1.763883352279663 Z" stroke="none"/>
      <path d="M 0.2999999523162842 0.3787155151367188 L 0.2999999523162842 1.566160440444946 L 2.422577142715454 0.9724162817001343 L 0.2999999523162842 0.3787155151367188 M 0 2.622604370117188e-06 L 0.05975008010864258 2.622604370117188e-06 L 3 0.8224126100540161 L 3 1.12241268157959 L 0.05975008010864258 1.94488263130188 L 0 1.94488263130188 L 0 2.622604370117188e-06 Z" stroke="none" fill="#000"/>
    </g>
    <g data-name="Rectangle 2" transform="translate(0 8)" fill="#fff" stroke="#000" stroke-width="0.5">
      <rect width="8" height="9" stroke="none"/>
      <rect x="0.25" y="0.25" width="7.5" height="8.5" fill="none"/>
    </g>
    <g data-name="Ellipse 1" transform="translate(86.5 11.5)" fill="none" stroke="#000" stroke-width="1">
      <ellipse cx="0.5" cy="1" rx="0.5" ry="1" stroke="none"/>
      <ellipse cx="0.5" cy="1" ry="0.5" fill="none"/>
    </g>
    <g data-name="Ellipse 2" transform="translate(86.5 14.5)" fill="none" stroke="#000" stroke-width="1">
      <ellipse cx="0.5" cy="1" rx="0.5" ry="1" stroke="none"/>
      <ellipse cx="0.5" cy="1" ry="0.5" fill="none"/>
    </g>
    <g data-name="Ellipse 3" transform="translate(86.5 8.5)" fill="none" stroke="#000" stroke-width="1">
      <ellipse cx="0.5" cy="1" rx="0.5" ry="1" stroke="none"/>
      <ellipse cx="0.5" cy="1" ry="0.5" fill="none"/>
    </g>
  </g>
</svg>
